<svg width="100%" viewBox="0 0 680 320" xmlns="http://www.w3.org/2000/svg">
  <style>
    .geo  { fill: none; stroke: #c8a96e; stroke-opacity: 0.45; stroke-width: 0.8; }
    .geo2 { fill: none; stroke: #c8a96e; stroke-opacity: 0.75; stroke-width: 1.4; }
    .wm   { font-family: 'Bebas Neue', 'Arial Narrow', sans-serif; }
    .tag  { font-family: Georgia, serif; font-style: italic; }
    .f0  { fill: #c8a96e; fill-opacity: 0.95; stroke: #080808; stroke-width: 0.6; }
    .f1  { fill: #c8a96e; fill-opacity: 0.75; stroke: #080808; stroke-width: 0.6; }
    .f2  { fill: #c8a96e; fill-opacity: 0.55; stroke: #080808; stroke-width: 0.6; }
    .f3  { fill: #c8a96e; fill-opacity: 0.38; stroke: #080808; stroke-width: 0.6; }
  </style>

  <rect width="680" height="320" fill="#080808"/>

  <!-- SACRED GEOMETRY -->
  <circle cx="152" cy="152" r="106" class="geo2"/>
  <rect x="78" y="82" width="148" height="148" class="geo"/>
  <circle cx="152" cy="99"  r="53" class="geo"/>
  <circle cx="152" cy="205" r="53" class="geo"/>
  <circle cx="106" cy="126" r="53" class="geo"/>
  <circle cx="198" cy="126" r="53" class="geo"/>
  <circle cx="106" cy="178" r="53" class="geo"/>
  <circle cx="198" cy="178" r="53" class="geo"/>
  <circle cx="152" cy="152" r="53" class="geo"/>
  <polygon points="152,70 220,108 220,194 152,232 84,194 84,108" class="geo"/>
  <polygon points="152,232 84,108 220,108" class="geo"/>
  <polygon points="152,70 84,194 220,194" class="geo"/>
  <rect x="78" y="82" width="148" height="148" class="geo" transform="rotate(45 152 156)"/>

  <!-- HEAD -->
  <polygon points="152,46 144,52 148,64 152,66 156,64 160,52" class="f0"/>
  <polygon points="144,52 140,60 144,66 148,64" class="f1"/>
  <polygon points="160,52 156,64 160,66 164,60" class="f2"/>
  <polygon points="148,64 144,66 146,72 150,74 152,72" class="f1"/>
  <polygon points="152,66 156,64 158,70 154,74 152,72" class="f2"/>
  <!-- NECK -->
  <polygon points="148,72 144,78 148,82 152,80" class="f1"/>
  <polygon points="152,72 154,74 158,80 156,82 152,80" class="f2"/>
  <!-- SHOULDERS -->
  <polygon points="144,78 130,80 124,88 132,94 140,90 148,82" class="f0"/>
  <polygon points="156,80 158,82 164,90 172,94 180,88 170,80" class="f1"/>
  <polygon points="148,82 140,90 142,100 150,102 152,98" class="f0"/>
  <polygon points="152,80 152,98 158,100 162,90 156,82" class="f1"/>
  <!-- CHEST -->
  <polygon points="132,94 124,100 126,112 136,114 142,100 140,90" class="f0"/>
  <polygon points="140,90 142,100 148,104 150,102" class="f1"/>
  <polygon points="172,94 180,100 178,112 168,114 162,100 164,90" class="f2"/>
  <polygon points="164,90 162,100 156,104 154,102 156,82" class="f1"/>
  <polygon points="142,100 148,104 150,114 144,116 136,114" class="f1"/>
  <polygon points="158,100 156,104 154,114 160,116 168,114" class="f2"/>
  <polygon points="148,104 152,102 156,104 154,114 150,114" class="f0"/>
  <!-- ABS -->
  <polygon points="144,116 150,114 150,124 146,126 140,122" class="f1"/>
  <polygon points="150,114 156,114 160,122 154,126 150,124" class="f2"/>
  <polygon points="140,122 146,126 144,136 138,132" class="f0"/>
  <polygon points="154,126 160,122 162,132 156,136" class="f1"/>
  <polygon points="146,126 150,124 154,126 156,136 150,138 144,136" class="f2"/>
  <polygon points="138,132 144,136 142,146 136,142" class="f1"/>
  <polygon points="156,136 162,132 164,142 158,146" class="f2"/>
  <polygon points="144,136 150,138 156,136 158,146 150,150 142,146" class="f0"/>
  <!-- HIPS -->
  <polygon points="136,142 142,146 140,156 130,154" class="f1"/>
  <polygon points="158,146 164,142 170,154 160,156" class="f2"/>
  <polygon points="142,146 150,150 158,146 160,156 150,160 140,156" class="f1"/>
  <!-- LEFT ARM -->
  <polygon points="124,88 108,92 100,100 112,104 124,100" class="f0"/>
  <polygon points="108,92 90,96 82,104 94,108 100,100" class="f1"/>
  <polygon points="90,96 72,100 64,108 76,112 82,104" class="f2"/>
  <polygon points="72,100 56,104 50,110 62,114 64,108" class="f3"/>
  <polygon points="50,110 44,106 38,112 46,116" class="f2"/>
  <polygon points="44,106 40,102 36,108 38,112" class="f3"/>
  <!-- RIGHT ARM -->
  <polygon points="180,88 196,92 204,100 192,104 180,100" class="f1"/>
  <polygon points="196,92 214,96 222,104 210,108 204,100" class="f2"/>
  <polygon points="214,96 232,100 240,108 228,112 222,104" class="f1"/>
  <polygon points="232,100 248,104 254,110 242,114 240,108" class="f2"/>
  <polygon points="254,110 260,106 266,112 258,116" class="f1"/>
  <polygon points="260,106 264,102 268,108 266,112" class="f3"/>
  <!-- LEFT LEG -->
  <polygon points="134,156 150,160 148,172 132,168" class="f0"/>
  <polygon points="132,168 148,172 146,186 130,182" class="f1"/>
  <polygon points="130,182 146,186 144,200 128,196" class="f2"/>
  <polygon points="128,196 144,200 142,214 126,210" class="f1"/>
  <polygon points="126,210 142,214 140,228 124,224" class="f0"/>
  <polygon points="124,224 140,228 138,242 122,238" class="f2"/>
  <polygon points="122,238 138,242 135,250 118,247" class="f1"/>
  <polygon points="118,247 135,250 132,256 115,253" class="f3"/>
  <!-- RIGHT LEG -->
  <polygon points="170,156 154,160 156,172 172,168" class="f1"/>
  <polygon points="172,168 156,172 158,186 174,182" class="f2"/>
  <polygon points="174,182 158,186 160,200 176,196" class="f0"/>
  <polygon points="176,196 160,200 162,214 178,210" class="f1"/>
  <polygon points="178,210 162,214 164,228 180,224" class="f2"/>
  <polygon points="180,224 164,228 166,242 182,238" class="f0"/>
  <polygon points="182,238 166,242 169,250 186,247" class="f1"/>
  <polygon points="186,247 169,250 172,256 189,253" class="f3"/>

  <!-- WORDMARK -->
  <text x="292" y="152" class="wm" font-size="90"
    fill="none" stroke="#c8a96e" stroke-width="1.2" stroke-opacity="0.9"
    letter-spacing="0.06em">WYLDE</text>
  <text x="294" y="212" class="wm" font-size="58" fill="#c8a96e" letter-spacing="0.1em">SELF</text>
  <line x1="294" y1="224" x2="626" y2="224" stroke="#c8a96e" stroke-width="0.6" stroke-opacity="0.4"/>
  <text x="295" y="248" class="tag" font-size="14" fill="#c8a96e" fill-opacity="0.65">Train with the person you're becoming</text>
</svg>
